<svg xmlns="http://www.w3.org/2000/svg" viewBox="0 0 512 512">
  <defs>
    <linearGradient id="bg" x1="0" y1="0" x2="1" y2="1">
      <stop offset="0%" stop-color="#0b1220"/>
      <stop offset="100%" stop-color="#111827"/>
    </linearGradient>
    <linearGradient id="gold" x1="0" y1="0" x2="1" y2="1">
      <stop offset="0%" stop-color="#fbbf24"/>
      <stop offset="100%" stop-color="#f59e0b"/>
    </linearGradient>
    <filter id="shadow" x="-20%" y="-20%" width="140%" height="140%">
      <feDropShadow dx="0" dy="8" stdDeviation="10" flood-opacity="0.25"/>
    </filter>
  </defs>
  <rect x="24" y="24" width="464" height="464" rx="112" fill="url(#bg)"/>
  <rect x="32" y="32" width="448" height="448" rx="104" fill="none" stroke="#1f2937" stroke-width="4"/>
  <circle cx="256" cy="256" r="132" fill="none" stroke="url(#gold)" stroke-width="26" filter="url(#shadow)"/>
  <circle cx="256" cy="256" r="92" fill="none" stroke="#374151" stroke-width="10" opacity="0.55"/>
  <path d="M220 150v212M286 150v212M210 182h76c28 0 46 18 46 42 0 20-13 34-34 40 30 6 46 24 46 50 0 30-23 48-62 48h-72"
        fill="none" stroke="#f8fafc" stroke-width="24" stroke-linecap="round" stroke-linejoin="round"/>
  <path d="M132 346 L206 272 L176 272 L240 166"
        fill="none" stroke="url(#gold)" stroke-width="22" stroke-linecap="round" stroke-linejoin="round" filter="url(#shadow)"/>
  <text x="256" y="440" text-anchor="middle" font-family="Inter, Arial, sans-serif" font-size="34" font-weight="700" fill="#9ca3af" letter-spacing="2">SOLOSTRIKE</text>
</svg>
